<?xml version="1.0" encoding="UTF-8"?> <svg xmlns="http://www.w3.org/2000/svg" width="350" height="79" viewBox="0 0 350 79" fill="none"><path d="M30.7656 67.5693H0V77.1914H30.7656V67.5693Z" fill="white"></path><path d="M50.8705 21.5932C47.4623 19.7147 43.5721 18.7774 39.1885 18.7774C35.5049 18.7774 32.0967 19.4393 28.9678 20.7592C25.9077 22.0791 23.3716 23.9576 21.3557 26.3909V0H9.46721V48.646H0V58.2681H30.7656V48.646H21.3557V45.0612C21.3557 39.9154 22.641 35.9862 25.2153 33.2737C27.8585 30.4922 31.4044 29.0996 35.853 29.0996C40.3016 29.0996 43.8131 30.4922 46.3874 33.2737C48.9617 35.9862 50.247 39.9154 50.247 45.0612V77.1871H62.0322V43.286C62.0322 38.0713 61.0224 33.6218 59.0066 29.9337C57.0557 26.2493 54.3437 23.4679 50.8705 21.5932Z" fill="white"></path><path d="M120.264 28.0588C118.248 25.4152 115.536 23.2268 112.128 21.486C108.793 19.6763 104.864 18.7734 100.343 18.7734C95.3359 18.7734 90.7495 20.0245 86.5763 22.5266C82.4757 24.9599 79.2053 28.4032 76.7725 32.8527C74.4085 37.3022 73.2266 42.4135 73.2266 48.1868C73.2266 53.96 74.4085 59.1403 76.7725 63.7275C79.2053 68.2459 82.4719 71.7924 86.5763 74.3673C90.6768 76.8694 95.1981 78.1243 100.133 78.1243C104.581 78.1243 108.544 77.2214 112.021 75.4117C115.498 73.6021 118.245 71.3448 120.26 68.6323V77.1869H132.252V19.7146H120.264V28.0588ZM117.763 58.8304C116.164 61.7495 114.045 63.9762 111.401 65.5065C108.758 67.0369 105.909 67.802 102.848 67.802C99.8572 67.802 97.0074 67.0369 94.2954 65.5065C91.6522 63.9073 89.4987 61.6118 87.8309 58.6238C86.232 55.6319 85.4326 52.158 85.4326 48.1944C85.4326 44.2308 86.232 40.822 87.8309 37.9717C89.4987 35.0525 91.6561 32.8603 94.2954 31.3988C96.9386 29.8685 99.7883 29.1033 102.848 29.1033C105.909 29.1033 108.758 29.8685 111.401 31.3988C114.045 32.9292 116.164 35.152 117.763 38.075C119.43 40.9941 120.264 44.4374 120.264 48.401C120.264 52.3608 119.43 55.8385 117.763 58.8304Z" fill="white"></path><path d="M161.743 5.4248H149.751V19.7145H142.973V29.4169H149.751V61.229C149.751 66.8607 151.178 70.9315 154.027 73.4336C156.877 75.9357 160.981 77.1906 166.333 77.1906H175.716V67.2816H168.417C165.985 67.2816 164.244 66.8301 163.204 65.9272C162.228 64.9555 161.743 63.3907 161.743 61.2329V29.4131H175.716V19.7145H161.743V5.4248V5.4248Z" fill="white"></path><path d="M228.079 21.5932C224.671 19.7147 220.781 18.7774 216.401 18.7774C212.717 18.7774 209.309 19.4393 206.18 20.7592C203.12 22.0791 200.584 23.9576 198.564 26.3909V0H186.676V77.1871H198.564V45.0612C198.564 39.9154 199.853 35.9862 202.424 33.2737C205.067 30.4922 208.609 29.0996 213.062 29.0996C217.514 29.0996 221.022 30.4922 223.596 33.2737C226.166 35.9862 227.456 39.9154 227.456 45.0612V77.1871H239.241V43.286C239.241 38.0713 238.231 33.6218 236.215 29.9337C234.268 26.2493 231.556 23.4679 228.079 21.5932Z" fill="white"></path><path d="M294.762 22.4272C290.313 19.994 285.34 18.7773 279.847 18.7773C274.354 18.7773 269.382 19.994 264.933 22.4272C260.484 24.8605 256.973 28.3382 254.403 32.8566C251.832 37.3749 250.543 42.559 250.543 48.3973C250.543 54.3083 251.794 59.5229 254.299 64.0451C256.801 68.4946 260.244 71.9723 264.623 74.4745C269.003 76.9077 273.903 78.1243 279.327 78.1243C284.82 78.1243 289.827 76.9077 294.345 74.4745C298.935 71.9723 302.55 68.4602 305.189 63.938C307.832 59.4196 309.152 54.2356 309.152 48.3973C309.152 42.5552 307.866 37.3749 305.292 32.8566C302.722 28.3382 299.21 24.8605 294.762 22.4272ZM294.448 59.037C292.78 61.9562 290.588 64.1484 287.88 65.6099C285.237 67.0714 282.387 67.8021 279.327 67.8021C274.53 67.8021 270.533 66.134 267.335 62.7941C264.206 59.3852 262.642 54.5875 262.642 48.4011C262.642 44.2271 263.407 40.7187 264.937 37.8646C266.467 34.9455 268.517 32.7533 271.092 31.2918C273.735 29.8303 276.585 29.0996 279.645 29.0996C282.701 29.0996 285.554 29.8303 288.194 31.2918C290.837 32.7533 292.956 34.9417 294.555 37.8646C296.154 40.7149 296.953 44.2271 296.953 48.4011C296.95 52.5713 296.116 56.1179 294.448 59.037Z" fill="white"></path><path d="M339.676 21.2795C336.826 22.8787 334.531 25.1398 332.795 28.0589V19.7147H320.906V77.187H332.795V46.9358C332.795 41.0937 333.977 36.9923 336.341 34.628C338.773 32.2636 342.319 31.0814 346.978 31.0814H350V18.7773C346.037 18.7773 342.599 19.6114 339.676 21.2795Z" fill="white"></path></svg> 